<svg width="44" height="44" viewBox="0 0 44 44" fill="none" xmlns="http://www.w3.org/2000/svg">
<path d="M17.0417 17.9167C16.5584 17.9167 16.1667 18.3084 16.1667 18.7917C16.1667 19.2749 16.5584 19.6667 17.0417 19.6667H23.4583C23.9416 19.6667 24.3333 19.2749 24.3333 18.7917C24.3333 18.3084 23.9416 17.9167 23.4583 17.9167H17.0417Z" fill="black"/>
<path d="M16.1667 22.2917C16.1667 21.8084 16.5584 21.4167 17.0417 21.4167H21.125C21.6082 21.4167 22 21.8084 22 22.2917C22 22.7749 21.6082 23.1667 21.125 23.1667H17.0417C16.5584 23.1667 16.1667 22.7749 16.1667 22.2917Z" fill="black"/>
<path fill-rule="evenodd" clip-rule="evenodd" d="M25.7876 27.0251C24.2793 28.2594 22.3511 29 20.25 29C15.4175 29 11.5 25.0825 11.5 20.25C11.5 15.4175 15.4175 11.5 20.25 11.5C25.0825 11.5 29 15.4175 29 20.25C29 22.3511 28.2594 24.2793 27.0251 25.7876L32.2437 31.0063C32.5854 31.348 32.5854 31.902 32.2437 32.2437C31.902 32.5854 31.348 32.5854 31.0063 32.2437L25.7876 27.0251ZM27.25 20.25C27.25 24.116 24.116 27.25 20.25 27.25C16.384 27.25 13.25 24.116 13.25 20.25C13.25 16.384 16.384 13.25 20.25 13.25C24.116 13.25 27.25 16.384 27.25 20.25Z" fill="black"/>
</svg>
