<svg width="70" height="66" viewBox="0 0 70 66" fill="none" xmlns="http://www.w3.org/2000/svg">
<g filter="url(#filter0_d_2_112822)">
<rect x="6" y="9" width="50" height="50" rx="25" fill="#E6560F"/>
<path d="M21.9229 29.5849C21.5812 29.9266 21.5812 30.4806 21.9229 30.8223C22.2647 31.1641 22.8187 31.1641 23.1604 30.8223L27.4954 26.4873L27.4954 43.6249C27.4954 44.1081 27.8872 44.4999 28.3704 44.4999C28.8537 44.4999 29.2454 44.1081 29.2454 43.6249L29.2454 24.3749C29.2454 24.0209 29.0323 23.7019 28.7053 23.5665C28.3783 23.431 28.002 23.5059 27.7517 23.7561L21.9229 29.5849Z" fill="white"/>
<path d="M40.0764 38.4063C40.4181 38.0646 40.4181 37.5106 40.0764 37.1689C39.7347 36.8272 39.1807 36.8272 38.839 37.1689L34.4955 41.5124L34.4955 24.3749C34.4955 23.8916 34.1037 23.4999 33.6205 23.4999C33.1372 23.4999 32.7455 23.8916 32.7455 24.3749L32.7455 43.6249C32.7455 43.9788 32.9586 44.2978 33.2856 44.4332C33.6126 44.5687 33.9889 44.4938 34.2392 44.2436L40.0764 38.4063Z" fill="white"/>
</g>
<defs>
<filter id="filter0_d_2_112822" x="0" y="0" width="70" height="66" filterUnits="userSpaceOnUse" color-interpolation-filters="sRGB">
<feFlood flood-opacity="0" result="BackgroundImageFix"/>
<feColorMatrix in="SourceAlpha" type="matrix" values="0 0 0 0 0 0 0 0 0 0 0 0 0 0 0 0 0 0 127 0" result="hardAlpha"/>
<feMorphology radius="4" operator="erode" in="SourceAlpha" result="effect1_dropShadow_2_112822"/>
<feOffset dy="1"/>
<feGaussianBlur stdDeviation="5"/>
<feColorMatrix type="matrix" values="0 0 0 0 0 0 0 0 0 0 0 0 0 0 0 0 0 0 0.21 0"/>
<feBlend mode="normal" in2="BackgroundImageFix" result="effect1_dropShadow_2_112822"/>
<feBlend mode="normal" in="SourceGraphic" in2="effect1_dropShadow_2_112822" result="shape"/>
</filter>
</defs>
</svg>
